<?xml version="1.0" encoding="UTF-8"?>
<svg id="Camada_2" data-name="Camada 2" xmlns="http://www.w3.org/2000/svg" xmlns:xlink="http://www.w3.org/1999/xlink" viewBox="0 0 390.59 212.51">
  <defs>
    <style>
      .cls-1 { fill: url(#Gradiente_sem_nome_11); }
      .cls-2 { fill: url(#Gradiente_sem_nome_10); }
      .cls-3 { fill: url(#Gradiente_sem_nome_2); }
      .cls-4 { fill: url(#Gradiente_sem_nome_8); }
      .cls-5 { fill: url(#Gradiente_sem_nome_7); }
      .cls-6 { fill: url(#Gradiente_sem_nome_9); }
      .cls-7 { fill: #2e2e2e; font-family: FuturaBT-Book, 'FuturaBT Book'; font-size: 27.96px; }
      .cls-8 { fill: url(#Gradiente_sem_nome_9-2); }
      .cls-9 { fill: url(#Gradiente_sem_nome_8-2); }
      .cls-10 { fill: url(#Gradiente_sem_nome_7-2); }
      .cls-11 { letter-spacing: .16em; }
      .cls-12 { letter-spacing: .14em; }
      .cls-13 { clip-path: url(#clippath-1); }
      .cls-14 { clip-path: url(#clippath-3); }
      .cls-15 { clip-path: url(#clippath-4); }
      .cls-16 { clip-path: url(#clippath-2); }
      .cls-17 { clip-path: url(#clippath-7); }
      .cls-18 { clip-path: url(#clippath-6); }
      .cls-19 { clip-path: url(#clippath-9); }
      .cls-20 { clip-path: url(#clippath-8); }
      .cls-21 { clip-path: url(#clippath-5); }
      .cls-22 { clip-rule: evenodd; fill: none; }
      .cls-23 { fill: url(#Gradiente_sem_nome_10-2); }
      .cls-24 { clip-path: url(#clippath); }
    </style>
    <clipPath id="clippath"><polygon class="cls-22" points="390.59 172.9 322.9 173.02 278.59 107.99 278.59 3.81 318.3 3.81 319.43 132.46 390.59 132.46 390.59 172.9"/></clipPath>
    <linearGradient id="Gradiente_sem_nome_11" x1="294.05" y1="86.96" x2="460.84" y2="92.96" gradientUnits="userSpaceOnUse"><stop offset="0" stop-color="#c5d200"/><stop offset="1" stop-color="#72931d"/></linearGradient>
    <clipPath id="clippath-1"><path class="cls-22" d="M318.27,3.81h-49.24l-56.07,84.25v84.82h-43.26v-75.75c.15-.02.29-.04.44-.06,10.23-1.58,17.24-11.15,15.66-21.38-1.3-8.44-8.04-14.68-16.1-15.73V3.24h43.26v84.82l55.79,84.82h49.52l-57.99-84.59L318.27,3.81Z"/></clipPath>
    <linearGradient id="Gradiente_sem_nome_2" x1="164.08" y1="86.13" x2="293.59" y2="89.26" gradientUnits="userSpaceOnUse"><stop offset="0" stop-color="#28236c"/><stop offset="1" stop-color="#119ad7"/></linearGradient>
    <clipPath id="clippath-2"><path class="cls-22" d="M56.76,96.15c-14.34-15.47-20.63-31.32-14.4-40.02,6.29-8.79,23.6-7.85,43.11.99-.14.02-.28.04-.42.06-18.52,3.07-31.1,20.46-28.28,38.97M42.02,43.64c1.3,7.85-4.01,15.27-11.86,16.57-7.85,1.3-15.28-4.01-16.57-11.86-1.3-7.85,4.01-15.28,11.86-16.58,7.85-1.3,15.27,4.01,16.57,11.86Z"/></clipPath>
    <linearGradient id="Gradiente_sem_nome_7" x1="49.26" y1="62.85" x2="68.33" y2="39.51" gradientUnits="userSpaceOnUse"><stop offset="0" stop-color="#00963f"/><stop offset="1" stop-color="#35aa54"/></linearGradient>
    <clipPath id="clippath-3"><path class="cls-22" d="M71.4,119.36c-21.61-.61-37.74-7.42-39.52-18.15-1.74-10.53,10.82-21.95,30.43-29.5-4.79,7.03-6.98,15.84-5.48,24.89,1.6,9.64,7.08,17.67,14.57,22.76M28.63,100.81c1.3,7.85-4.01,15.27-11.86,16.57-7.85,1.3-15.27-4.01-16.57-11.86-1.3-7.85,4.01-15.27,11.86-16.57,7.85-1.3,15.27,4.01,16.57,11.86Z"/></clipPath>
    <linearGradient id="Gradiente_sem_nome_8" x1="35.39" y1="97.49" x2="32.17" y2="72" gradientUnits="userSpaceOnUse"><stop offset="0" stop-color="#c5d200"/><stop offset="1" stop-color="#8dac19"/></linearGradient>
    <clipPath id="clippath-4"><path class="cls-22" d="M98.1,124.45c-16.01,15.5-32.72,22.51-41.75,16.05-8.71-6.23-7.86-23.27.74-42.56,3.7,17.93,20.94,29.89,39.17,26.87.62-.1,1.24-.22,1.84-.36M60.11,150.85c1.3,7.85-4.01,15.27-11.86,16.57-7.85,1.3-15.27-4.01-16.57-11.86-1.3-7.85,4.01-15.27,11.86-16.57,7.85-1.3,15.28,4.01,16.58,11.86Z"/></clipPath>
    <linearGradient id="Gradiente_sem_nome_10" x1="59.67" y1="130.01" x2="83.55" y2="147.39" gradientUnits="userSpaceOnUse"><stop offset="0" stop-color="#009ee2"/><stop offset="1" stop-color="#006996"/></linearGradient>
    <clipPath id="clippath-5"><path class="cls-22" d="M119.61,109.32c-.21,22.68-7.1,39.83-18.19,41.66-10.73,1.78-22.38-11.3-29.93-31.56,7.01,4.72,15.76,6.88,24.76,5.39,10.03-1.66,18.32-7.53,23.36-15.49M118.25,164.4c1.3,7.85-4.01,15.27-11.86,16.57-7.85,1.3-15.27-4.01-16.57-11.86-1.3-7.85,4.01-15.27,11.86-16.57,7.85-1.3,15.27,4.01,16.57,11.86Z"/></clipPath>
    <linearGradient id="Gradiente_sem_nome_9" x1="97.2" y1="145.61" x2="129.23" y2="142" gradientUnits="userSpaceOnUse"><stop offset="0" stop-color="#2c2e85"/><stop offset="1" stop-color="#009ee2"/></linearGradient>
    <clipPath id="clippath-6"><path class="cls-22" d="M167.78,133.64c1.3,7.85-4.01,15.27-11.86,16.57-7.85,1.3-15.27-4.01-16.57-11.86-1.3-7.85,4.01-15.27,11.86-16.57,7.85-1.3,15.27,4.01,16.57,11.86M124.27,84.36c15.78,16.13,22.96,33.05,16.44,42.16-6.45,9.02-24.49,7.79-44.62-1.68l.16-.02c18.67-3.1,31.3-20.75,28.21-39.42-.06-.35-.12-.69-.19-1.03Z"/></clipPath>
    <linearGradient id="Gradiente_sem_nome_7-2" x1="126.22" y1="125.74" x2="145.29" y2="102.39" xlink:href="#Gradiente_sem_nome_7"/>
    <clipPath id="clippath-7"><path class="cls-22" d="M181.48,76.42c1.3,7.85-4.01,15.28-11.86,16.58-7.85,1.3-15.27-4.01-16.57-11.86-1.3-7.85,4.01-15.27,11.86-16.57,7.85-1.3,15.27,4.01,16.57,11.86M110.79,63.27c22.05.45,38.6,7.29,40.4,18.17,1.84,11.08-12.15,23.13-33.52,30.64,5.68-7.29,8.42-16.85,6.79-26.69-1.53-9.25-6.64-17.02-13.67-22.12Z"/></clipPath>
    <linearGradient id="Gradiente_sem_nome_8-2" x1="146.25" y1="83.47" x2="143.03" y2="57.98" xlink:href="#Gradiente_sem_nome_8"/>
    <clipPath id="clippath-8"><path class="cls-22" d="M92.69,12.06c1.3,7.85-4.01,15.27-11.86,16.57-7.85,1.3-15.27-4.01-16.57-11.86-1.3-7.85,4.01-15.27,11.86-16.58,7.85-1.3,15.27,4.01,16.57,11.86M63.54,70.03c.82-21.02,7.57-36.61,18.11-38.36,10.89-1.8,22.72,11.68,30.26,32.44-7.31-5.78-16.94-8.57-26.86-6.93-8.88,1.47-16.4,6.24-21.5,12.84Z"/></clipPath>
    <linearGradient id="Gradiente_sem_nome_9-2" x1="84.7" y1="34.77" x2="116.73" y2="31.16" xlink:href="#Gradiente_sem_nome_9"/>
    <clipPath id="clippath-9"><path class="cls-22" d="M149.85,25.45c1.3,7.85-4.01,15.27-11.86,16.57-7.85,1.3-15.27-4.01-16.57-11.86-1.3-7.85,4.01-15.27,11.86-16.57,7.85-1.3,15.27,4.01,16.57,11.86M86.22,57.02c15.63-14.67,31.72-21.16,40.51-14.86,9.11,6.52,7.76,24.89-1.99,45.28-.07-.67-.16-1.35-.27-2.03-3.03-18.28-20-30.76-38.24-28.38Z"/></clipPath>
    <linearGradient id="Gradiente_sem_nome_10-2" x1="118.22" y1="49.52" x2="142.11" y2="66.9" xlink:href="#Gradiente_sem_nome_10"/>
  </defs>
  <g id="Camada_1-2">
    <g class="cls-24"><rect class="cls-1" x="278.59" y="3.81" width="112" height="169.21"/></g>
    <g class="cls-13"><rect class="cls-3" x="169.69" y="3.24" width="148.58" height="169.64"/></g>
    <text class="cls-7" transform="translate(165.88 205.52) scale(1.58 1)"><tspan class="cls-12" x="0" y="0">F</tspan><tspan class="cls-11" x="17.64" y="0">acilitie</tspan><tspan x="129.37" y="0">s</tspan></text>
    <g class="cls-16"><rect class="cls-5" x="12.29" y="30.48" width="73.18" height="65.67"/></g>
    <g class="cls-14"><rect class="cls-4" x="-1.11" y="71.72" width="72.51" height="47.65"/></g>
    <g class="cls-15"><rect class="cls-2" x="30.37" y="97.94" width="67.72" height="70.78"/></g>
    <g class="cls-21"><rect class="cls-6" x="71.49" y="109.32" width="48.12" height="72.95"/></g>
    <g class="cls-18"><rect class="cls-10" x="96.09" y="84.36" width="72.99" height="67.15"/></g>
    <g class="cls-17"><rect class="cls-9" x="110.79" y="63.26" width="72" height="48.82"/></g>
    <g class="cls-20"><rect class="cls-8" x="62.95" y="-1.1" width="48.95" height="71.13"/></g>
    <g class="cls-19"><rect class="cls-23" x="86.22" y="12.29" width="64.93" height="75.14"/></g>
  </g>
</svg>
